<?xml version="1.0" encoding="UTF-8"?>
<svg id="Layer_1" data-name="Layer 1" xmlns="http://www.w3.org/2000/svg" viewBox="0 0 612 792">
  <defs>
    <style>
      .cls-1 {
        fill: #4dc4d2;
      }

      .cls-2 {
        fill: #fff;
      }

      .cls-3 {
        fill: #1768ab;
      }

      .cls-4 {
        fill: #1194d2;
      }

      .cls-5 {
        fill: #f6f5f5;
      }

      .cls-6 {
        fill: #1b6aac;
      }
    </style>
  </defs>
  <rect class="cls-4" x="23.93" y="200.06" width="0" height=".56"/>
  <g>
    <path class="cls-1" d="M411.45,331.07c3.73-.08,7.31.33,10.52,1.84,3.42,1.61,5.74,4.25,6.58,7.17.06.19.11.38.15.57.04.19.08.39.11.58.03.19.06.39.07.58.02.19.03.39.03.58,0,.2,0,.39,0,.59,0,.19-.02.39-.04.58-.02.19-.05.39-.08.58-.03.19-.08.39-.12.58-.05.19-.1.38-.16.57-.06.19-.13.38-.2.57-.07.19-.15.37-.24.56-.09.18-.18.37-.28.55-.1.18-.2.36-.31.54-.11.18-.23.35-.35.52s-.25.34-.38.51c-.13.17-.27.33-.42.5-.14.15-.28.3-.43.45-.15.15-.3.29-.46.44s-.32.28-.49.42c-.17.14-.34.27-.52.4-.18.13-.36.26-.54.38-.18.12-.37.24-.57.36-.19.12-.39.23-.59.34-.2.11-.4.21-.61.32-.21.1-.42.2-.63.29-.21.09-.43.18-.65.27-.22.09-.44.17-.67.25-.23.08-.45.15-.68.22-.23.07-.46.13-.7.2-.24.06-.47.12-.71.17-.24.05-.48.1-.72.14-.24.04-.49.08-.73.12-.27.04-.54.07-.81.09-.27.03-.55.05-.82.06-.27.02-.55.03-.82.03-.27,0-.55,0-.82,0-.27,0-.55-.01-.82-.03-.27-.01-.55-.03-.82-.06s-.54-.05-.82-.09c-.27-.03-.54-.07-.81-.12-.27-.04-.54-.09-.8-.14s-.53-.11-.79-.17c-.26-.06-.52-.13-.78-.2-.26-.07-.51-.15-.76-.23-.25-.08-.5-.17-.75-.26-.25-.09-.49-.18-.73-.28-.24-.1-.48-.2-.71-.31-.23-.11-.46-.22-.69-.33-3.63-1.88-5.57-4.48-6.37-7.65l-105.33.03c-15.17,11.82-31.53,22.83-46.84,34.55l-95.83-.04-32.02.13-.02-3.58c41.87-.35,83.81-.06,125.69-.02,5.91-4.9,12.51-9.42,18.81-14.04l28.53-20.87,107.05-.06c.53-1.35,1.07-2.59,2.13-3.77,2.83-3.16,6.67-4.65,11.58-5.38Z"/>
    <path class="cls-3" d="M239.6,186.63l.73.29c4.22,7.47,4.26,25.24,3.29,33.76-.83,7.25-4.87,14.8-9.69,20.39-10.02,11.6-24.85,16.66-40.34,17.86-16.75,1.3-25.47-.66-40.23,10.59-25.26,19.26-15.26,45.64-18.2,71.55-3.18,28.06-20.05,53.78-43.34,71.4,10.31,7.17,19.59,17.12,26.63,27.14.61.86,1.21,1.73,1.79,2.61.58.88,1.15,1.76,1.71,2.66.55.89,1.09,1.8,1.62,2.71.52.91,1.03,1.83,1.52,2.75.49.92.97,1.86,1.43,2.8.46.94.91,1.88,1.34,2.84.43.95.84,1.91,1.24,2.87.4.96.78,1.93,1.14,2.91.37.97.71,1.96,1.05,2.94s.65,1.97.95,2.97c.3.99.58,1.99.85,3,.27,1,.51,2.01.75,3.02.23,1.01.45,2.02.65,3.04.2,1.02.38,2.04.54,3.06.16,1.02.31,2.05.44,3.07.13,1.03.24,2.05.34,3.08,1.65,18.42-3.44,41.81,6.65,58.15,2.81,4.56,6.93,8.11,11.46,11.16,18.37,12.4,33.5,7.05,53.04,11.89,12.82,3.17,25.01,10.51,31.72,21.41,10.12,16.44,6.88,32.8,1.88,49.92-6.66-2.15-13.13-5.01-19.59-7.65-8.51-3.47-17.12-6.88-25.47-10.68,3.09-4.25,9.13-11.12,8.99-16.36-1.72-2.01-3.45-3.08-6.09-3.76-5.1-1.32-10.96-.91-16.23-.94l-21.8-.08c-4.81,0-9.72.19-14.52-.17-8.95-.68-17.76-2.7-25.85-6.37-7.78-3.53-15.01-8.31-20.71-14.42-11.28-12.09-17.26-30.73-16.96-46.62.11-5.9,1.52-11.54,2.36-17.36,1.99-13.71.61-26.91-4.26-39.97-10.36-27.76-35.94-49.75-63.71-62.32,1.54-.63,3.06-1.29,4.57-1.98,1.51-.69,3.01-1.4,4.49-2.14,1.48-.74,2.95-1.51,4.4-2.3,1.45-.79,2.88-1.61,4.3-2.45,1.42-.84,2.81-1.71,4.2-2.61,1.38-.89,2.74-1.81,4.09-2.76,1.34-.94,2.67-1.91,3.97-2.9,1.3-.99,2.59-2,3.85-3.04,22.79-18.71,36.34-45.66,34.51-74.16-.7-10.82-3.68-19.11-2.86-30.47,1.05-14.61,6.8-29.62,17.61-40.43,21.89-21.88,45.27-21.55,75.05-21.53,7.34,0,14.96.46,22.18-.9,2.23-.42,5.22-1.05,6.92-2.57.79-.71,1.14-1.55,1.14-2.57,0-5.2-7.53-11.35-11.24-14.79,5.79-1.84,11.48-4.2,17.16-6.33,9.57-3.59,19.17-7.17,28.55-11.18Z"/>
    <path class="cls-2" d="M236.34,203.44l.61.39c1.47,5.75.98,13.75-.74,19.38-5.45,17.85-20.87,23.54-39.65,25.17-5.66.49-11.38.41-17.01,1.18-8.12,1.11-15.99,3.34-23.14,7.06-.97.5-1.92,1.03-2.85,1.58-.93.55-1.85,1.13-2.75,1.73-.9.6-1.78,1.22-2.64,1.87-.86.65-1.7,1.31-2.51,2-.82.69-1.61,1.4-2.38,2.13-.77.73-1.52,1.48-2.24,2.25-.72.77-1.42,1.56-2.1,2.37-.67.81-1.32,1.63-1.94,2.47-19.01,25.49-5.75,53.41-14.23,81.48-7.43,24.58-27.21,46.23-51.46,58.74,8.43,5.92,17.31,10.76,24.88,17.72.58.54,1.15,1.08,1.71,1.62.56.55,1.12,1.1,1.67,1.66.55.56,1.09,1.12,1.63,1.69.53.57,1.06,1.15,1.58,1.73.52.58,1.03,1.17,1.54,1.76.5.59,1,1.19,1.49,1.79.49.6.97,1.21,1.45,1.82.47.61.94,1.23,1.4,1.85.46.62.91,1.25,1.35,1.88.44.63.88,1.27,1.3,1.91.43.64.84,1.29,1.25,1.94.41.65.81,1.31,1.2,1.96.39.66.78,1.32,1.15,1.99.38.67.74,1.34,1.1,2.01.36.67.71,1.35,1.05,2.04.34.68.67,1.37,1,2.06s.64,1.38.94,2.08c.31.7.6,1.4.89,2.1.29.7.57,1.41.84,2.12.27.71.53,1.42.78,2.13.25.71.49,1.43.73,2.15.23.72.46,1.44.67,2.16.22.72.42,1.45.62,2.18.2.73.38,1.46.56,2.19.18.73.35,1.47.51,2.2.16.74.31,1.47.45,2.21.14.74.27,1.48.39,2.22.12.74.23,1.48.34,2.23.1.74.2,1.49.28,2.23.08.75.16,1.49.22,2.24.06.75.12,1.49.16,2.24.04.75.08,1.5.11,2.25.79,20.53-3.61,39.8,10.3,58.03,10.51,13.77,28.62,21.4,46.59,23.04,6.49.59,13.01.16,19.46,1.23,11.44,1.9,22.48,7,29.17,15.87,7.17,9.5,7.38,20.03,5.19,30.94-6.21-2.32-12.7-4.52-18.58-7.47,1.74-2.92,2.88-5.51,3.58-8.79.02-1.02,0-2.05-.1-3.07-.82-7.49-7.36-12.99-14.99-15.06-6.83-1.85-14.43-1.19-21.48-1.12-11.67.11-28.88.77-40.05-.64-10.49-1.32-21.02-4.87-29.26-11-14.92-11.09-21.74-30.36-20.4-47.51.39-4.99,1.67-9.94,2.43-14.9,1.09-7.16,1.1-14.8.3-21.99-2.79-25.02-18.36-49.46-38.37-66.41-5.9-5-12.48-8.91-18.7-13.51,8.4-5.19,16.51-10.95,23.6-17.57,21.13-19.74,35.07-47.47,33.5-75.32-.38-6.69-2.03-13.12-2.91-19.74-1.07-7.97-.06-16.29,2.02-24.07.3-1.1.64-2.19,1.02-3.27.38-1.08.8-2.14,1.25-3.2.46-1.05.95-2.09,1.48-3.11.53-1.02,1.1-2.03,1.71-3.02.61-.99,1.25-1.96,1.92-2.91.68-.95,1.39-1.88,2.13-2.79.74-.91,1.52-1.79,2.33-2.65.81-.86,1.65-1.7,2.52-2.51,19.66-18.53,48.26-16.16,74.08-16.1,9,.02,19.34,0,27.23-4.45,4.07-2.3,7.09-5.79,8.15-10.08,1.14-4.62.13-8.61-2.64-12.54,5.53-2.58,11.61-4.29,17.35-6.5Z"/>
    <path class="cls-1" d="M197.03,533.83c-3.73.08-7.31-.33-10.52-1.84-3.42-1.61-5.74-4.25-6.58-7.17-.06-.19-.11-.38-.15-.57-.04-.19-.08-.39-.11-.58-.03-.19-.06-.39-.07-.58-.02-.19-.03-.39-.03-.58,0-.2,0-.39,0-.59,0-.19.02-.39.04-.58.02-.19.05-.39.08-.58.03-.19.08-.39.12-.58.05-.19.1-.38.16-.57.06-.19.13-.38.2-.57.07-.19.15-.37.24-.56.09-.18.18-.37.28-.55.1-.18.2-.36.31-.54.11-.18.23-.35.35-.52s.25-.34.38-.51c.13-.17.27-.33.42-.5.14-.15.28-.3.43-.45.15-.15.3-.29.46-.44s.32-.28.49-.42c.17-.14.34-.27.52-.4.18-.13.36-.26.54-.38.18-.12.37-.24.57-.36.19-.12.39-.23.59-.34.2-.11.4-.21.61-.32.21-.1.42-.2.63-.29.21-.09.43-.18.65-.27.22-.09.44-.17.67-.25.23-.08.45-.15.68-.22.23-.07.46-.13.7-.2.24-.06.47-.12.71-.17.24-.05.48-.1.72-.14.24-.04.49-.08.73-.12.27-.04.54-.07.81-.09.27-.03.55-.05.82-.06.27-.02.55-.03.82-.03.27,0,.55,0,.82,0,.27,0,.55.01.82.03.27.01.55.03.82.06s.54.05.82.09c.27.03.54.07.81.12.27.04.54.09.8.14s.53.11.79.17c.26.06.52.13.78.2.26.07.51.15.76.23.25.08.5.17.75.26.25.09.49.18.73.28.24.1.48.2.71.31.23.11.46.22.69.33,3.63,1.88,5.57,4.48,6.37,7.65l105.33-.03c15.17-11.82,31.53-22.83,46.84-34.55l95.83.04,32.02-.13.02,3.58c-41.87.35-83.81.06-125.69.02-5.91,4.9-12.51,9.42-18.81,14.04l-28.53,20.87-107.05.06c-.53,1.35-1.07,2.59-2.13,3.77-2.83,3.16-6.67,4.65-11.58,5.38Z"/>
    <path class="cls-3" d="M384.55,639.98l-.73-.29c-4.3-7.44-4.54-25.21-3.66-33.73.75-7.25,4.7-14.83,9.47-20.46,9.89-11.67,24.66-16.83,40.14-18.14,16.73-1.42,25.48.49,40.11-10.87,25.05-19.43,14.76-45.75,17.41-71.67,2.87-28.08,19.45-53.92,42.55-71.7-10.39-7.09-19.78-16.99-26.93-26.95-.62-.86-1.23-1.72-1.82-2.59-.59-.87-1.17-1.75-1.73-2.65-.56-.89-1.11-1.79-1.65-2.69-.53-.91-1.05-1.82-1.55-2.74-.5-.92-.99-1.85-1.46-2.79-.47-.94-.93-1.88-1.37-2.83-.44-.95-.86-1.9-1.27-2.86-.41-.96-.8-1.93-1.18-2.9-.38-.97-.74-1.95-1.08-2.93s-.67-1.97-.98-2.96c-.31-.99-.6-1.99-.88-2.99-.28-1-.54-2.01-.78-3.01-.24-1.01-.47-2.02-.68-3.03-.21-1.01-.4-2.03-.58-3.05-.18-1.02-.33-2.04-.47-3.07-.14-1.02-.26-2.05-.37-3.08-1.85-18.41,2.98-41.83-7.29-58.1-2.86-4.54-7.02-8.06-11.58-11.08-18.5-12.27-33.58-6.82-53.17-11.52-12.85-3.08-25.13-10.33-31.96-21.19-10.3-16.37-7.24-32.75-2.42-49.9,6.69,2.11,13.18,4.92,19.67,7.51,8.55,3.41,17.2,6.76,25.58,10.51-3.04,4.27-9.01,11.19-8.81,16.43,1.74,2,3.48,3.06,6.13,3.72,5.12,1.28,10.97.83,16.24.83l21.8-.07c4.81-.04,9.72-.26,14.52.07,8.96.62,17.79,2.57,25.92,6.19,7.82,3.48,15.1,8.2,20.86,14.27,11.41,12.01,17.6,30.61,17.47,46.5-.05,5.9-1.39,11.55-2.17,17.38-1.84,13.72-.31,26.92,4.7,39.94,10.66,27.68,36.48,49.49,64.39,61.87-1.53.64-3.05,1.31-4.55,2.01-1.5.7-2.99,1.42-4.47,2.17-1.47.75-2.93,1.53-4.37,2.33-1.44.8-2.87,1.63-4.27,2.48-1.41.85-2.8,1.73-4.17,2.64-1.37.9-2.72,1.83-4.06,2.78-1.33.95-2.64,1.93-3.94,2.93-1.29,1-2.56,2.02-3.81,3.07-22.58,18.87-35.84,45.91-33.69,74.4.81,10.81,3.89,19.08,3.19,30.45-.89,14.62-6.48,29.67-17.17,40.56-21.64,22.03-45.03,21.86-74.81,22.06-7.34.05-14.96-.35-22.17,1.06-2.23.44-5.21,1.09-6.9,2.62-.78.71-1.12,1.56-1.11,2.58.05,5.2,7.65,11.29,11.4,14.72-5.77,1.88-11.43,4.28-17.09,6.45-9.53,3.66-19.09,7.31-28.43,11.38Z"/>
    <path class="cls-2" d="M391.22,624.44l-.62-.39c-1.53-5.73-1.13-13.74.53-19.39,5.26-17.88,20.61-23.69,39.37-25.45,5.66-.53,11.37-.49,17-1.3,8.11-1.17,15.96-3.45,23.07-7.22.96-.51,1.91-1.04,2.84-1.6.93-.56,1.84-1.14,2.73-1.75.89-.61,1.76-1.23,2.62-1.89.85-.65,1.68-1.33,2.49-2.02.81-.7,1.59-1.41,2.36-2.15.76-.74,1.5-1.49,2.22-2.27.72-.78,1.4-1.57,2.07-2.38.66-.81,1.3-1.64,1.91-2.49,18.73-25.62,5.16-53.45,13.33-81.57,7.16-24.63,26.7-46.42,50.82-59.1-8.49-5.86-17.43-10.64-25.07-17.54-.58-.53-1.16-1.07-1.73-1.61-.57-.54-1.13-1.09-1.69-1.65-.56-.56-1.1-1.12-1.64-1.68-.54-.57-1.07-1.14-1.6-1.72-.53-.58-1.04-1.16-1.56-1.75-.51-.59-1.01-1.18-1.51-1.78-.5-.6-.98-1.2-1.47-1.81-.48-.61-.95-1.22-1.42-1.84-.47-.62-.92-1.24-1.37-1.87-.45-.63-.89-1.26-1.32-1.9-.43-.64-.86-1.28-1.27-1.93-.42-.65-.82-1.3-1.22-1.96-.4-.66-.79-1.32-1.17-1.98-.38-.66-.76-1.33-1.12-2.01-.37-.67-.72-1.35-1.07-2.03-.35-.68-.69-1.36-1.02-2.05s-.65-1.38-.97-2.07c-.31-.69-.62-1.39-.91-2.09-.3-.7-.58-1.4-.86-2.11-.28-.71-.55-1.42-.81-2.13-.26-.71-.51-1.43-.75-2.14-.24-.72-.47-1.44-.7-2.16-.22-.72-.44-1.45-.64-2.17-.2-.73-.4-1.46-.59-2.19s-.36-1.46-.53-2.2c-.17-.73-.32-1.47-.47-2.21-.15-.74-.29-1.48-.42-2.22-.13-.74-.25-1.48-.36-2.23-.11-.74-.21-1.49-.3-2.23-.09-.75-.17-1.49-.25-2.24-.07-.75-.14-1.49-.19-2.24-.05-.75-.1-1.5-.13-2.25-1.01-20.53,3.18-39.82-10.93-57.95-10.66-13.7-28.85-21.2-46.84-22.72-6.49-.55-13.01-.06-19.48-1.09-11.46-1.82-22.56-6.85-29.34-15.66-7.27-9.45-7.6-19.98-5.53-30.91,6.24,2.28,12.75,4.43,18.66,7.34-1.71,2.93-2.82,5.53-3.48,8.81-.01,1.02.01,2.05.13,3.07.9,7.48,7.5,12.94,15.16,14.96,6.85,1.81,14.45,1.09,21.49.97,11.67-.2,28.87-.97,40.06.36,10.5,1.25,21.07,4.73,29.38,10.79,15.05,10.99,22.07,30.21,20.92,47.36-.34,4.99-1.56,9.95-2.27,14.91-1.01,7.17-.93,14.81-.06,21.99,3.06,25,18.9,49.33,39.1,66.14,5.95,4.96,12.58,8.83,18.84,13.38-8.34,5.25-16.39,11.07-23.4,17.74-20.91,19.89-34.55,47.72-32.67,75.56.45,6.68,2.17,13.11,3.13,19.72,1.15,7.97.24,16.29-1.75,24.09-.29,1.1-.61,2.19-.98,3.27-.37,1.08-.77,2.15-1.22,3.21-.44,1.06-.93,2.1-1.45,3.12-.52,1.03-1.08,2.04-1.67,3.03-.59.99-1.22,1.97-1.89,2.92-.67.96-1.37,1.89-2.1,2.8-.73.91-1.5,1.8-2.3,2.67-.8.87-1.63,1.71-2.49,2.52-19.45,18.67-48.08,16.49-73.9,16.62-9,.04-19.34.13-27.18,4.64-4.05,2.33-7.02,5.84-8.03,10.14-1.09,4.63-.04,8.61,2.78,12.52-5.51,2.62-11.57,4.37-17.28,6.62Z"/>
    <path class="cls-3" d="M406.56,395.73c1.93.07,3.74.25,5.43,1,.25.11.49.23.72.35.23.13.45.26.66.4.21.14.41.29.6.45s.37.32.54.5c.17.17.32.35.47.53s.27.37.39.57c.12.19.22.39.31.59.09.2.17.41.23.61.05.18.1.37.13.56.03.19.05.38.05.56s0,.38-.03.57c-.02.19-.06.37-.11.56-.05.19-.11.37-.18.55-.07.18-.16.36-.26.53-.1.17-.21.34-.33.51-.12.17-.26.33-.4.48-1.58,1.69-3.9,2.33-6.5,2.7-2.25,0-4.38-.09-6.35-1-1.96-.91-3.43-2.25-3.9-3.95-.41-1.49-.03-3.03,1.17-4.28,1.85-1.93,4.41-2.48,7.38-2.8Z"/>
    <path class="cls-1" d="M400.28,414.11l13.92-.02.03,27.34c0,4.15.63,8.85-.19,12.93h-13.78c.75-13.3.41-26.94.02-40.25Z"/>
    <path class="cls-6" d="M216.42,402.3h14.21s.03,11.83.03,11.83l17.3-.16-.06,8.15c-5.82-.05-11.64-.06-17.45-.03.02,4.36-1.04,18.43,1.13,21.54.81,1.16,2.11,2.04,3.81,2.43,3.64.83,7.42-.63,10.53-1.87l1.92,4.44,1.55,3.07c-4.58,1.86-8.88,3.3-14.21,3.31-4.97,0-10.26-1.01-13.81-3.71-2.14-1.63-3.48-3.72-4.16-5.92-1.64-5.23-.67-17.47-.64-23.22l-11.18.03-.03-8.25,10.87.19c.19-3.93.15-7.88.2-11.81Z"/>
    <path class="cls-1" d="M455.3,358.2c3.02-.27,6.07-.07,8.9.8.23.07.46.15.68.23.22.08.45.16.67.25.22.09.44.18.65.28.21.1.42.2.63.3s.41.21.61.32c.2.11.39.23.59.34.19.12.38.24.56.37.18.13.36.25.54.39.17.13.34.27.51.41.17.14.33.28.48.42.16.14.31.29.45.44.15.15.29.3.42.46.14.16.27.31.39.47s.24.32.36.49c.11.16.22.33.32.5.1.17.2.34.29.51.1.18.19.35.27.53s.16.36.23.54.14.36.2.55c.06.18.11.37.16.55s.09.37.12.56c.03.19.06.38.08.56.02.19.04.38.04.57,0,.19.01.38,0,.57,0,.19-.01.38-.03.57-.02.19-.04.38-.07.56-.03.19-.07.37-.11.56-.04.19-.09.37-.15.56-.06.18-.12.37-.18.55-.07.18-.14.36-.22.54-.08.18-.17.36-.26.53-.09.18-.19.35-.29.52-1.66,2.75-4.75,5.03-8.59,6.07-3.85,1.05-8.45.81-12.16-.46-4.76-1.63-7.05-4.64-8.81-8.14l-137.22.03c-3.74,2.07-7.06,4.91-10.37,7.35-6.08,4.53-12.19,9.03-18.33,13.51l-13.88,10.19c-1.17-.92-2.38-1.82-3.56-2.72,3.37-2.2,6.37-4.75,9.58-7.08,11.48-8.32,22.6-16.99,34.48-25.01h139.02c.56-1.27,1.19-2.56,2.1-3.73,2.55-3.27,6.08-4.81,10.89-5.8Z"/>
    <path class="cls-5" d="M456.5,363.8c1.43-.05,2.89,0,4.25.37,2.05.57,3.8,1.72,4.63,3.24.09.17.17.34.24.51.07.17.12.35.17.53.04.18.07.36.09.54.02.18.02.36.01.54,0,.18-.03.36-.06.54-.03.18-.08.36-.14.53-.06.17-.13.35-.21.52-.08.17-.18.33-.28.5-1.19,1.8-3.35,2.71-5.78,3.34-1.63.06-3.15.03-4.66-.49-.26-.09-.5-.18-.75-.29-.24-.11-.47-.22-.7-.35-.23-.12-.44-.26-.65-.4-.21-.14-.4-.29-.59-.45-.19-.16-.36-.32-.52-.49-.16-.17-.31-.35-.45-.53s-.26-.37-.37-.56c-.11-.19-.21-.39-.29-.58-.07-.17-.13-.34-.17-.51-.05-.17-.08-.35-.1-.52-.02-.17-.03-.35-.03-.53,0-.18.01-.35.04-.53.02-.17.06-.35.11-.52.05-.17.11-.34.18-.51.07-.17.15-.33.24-.49.09-.16.19-.32.31-.47,1.24-1.65,3.17-2.38,5.49-2.94Z"/>
    <path class="cls-1" d="M298.68,413.8l14.2.05.04,13.59-.03,26.97h-13.22s.13-6.26.13-6.26c-.9.94-1.91,1.89-3,2.71-3.78,2.83-9.06,4.01-14.33,4.05-6.47.05-13.36-1.39-18.04-4.84-7.69-5.67-5.92-15.11-5.87-22.43.02-4.62,0-9.23-.05-13.85l13.98.02-.05,15.91c-.01,2.99-.37,6.3.4,9.23.47,1.79,1.49,3.6,3.22,4.92,2.46,1.87,5.53,2.5,8.96,2.48,3.65-.02,7.14-.77,9.73-2.75,1.81-1.39,2.95-3.19,3.51-5.06,1.48-4.95.48-18.98.42-24.77Z"/>
    <path class="cls-5" d="M411.54,336.92c1.4-.09,2.77-.09,4.13.24,2.18.54,4.02,1.63,4.93,3.22.77,1.34.76,2.81,0,4.16-1.1,1.97-3.14,2.85-5.64,3.64-.38.05-.77.08-1.15.1-.39.01-.77,0-1.16-.02-.39-.03-.77-.08-1.14-.14-.38-.07-.75-.15-1.11-.26-1.97-.56-3.46-1.55-4.3-3-.1-.18-.19-.36-.27-.54-.08-.18-.14-.37-.2-.56-.05-.19-.09-.38-.12-.57-.03-.19-.04-.38-.04-.58,0-.19.01-.39.04-.58s.07-.38.12-.57.12-.38.19-.56c.08-.18.17-.36.27-.54,1.08-1.9,3.05-2.67,5.45-3.44Z"/>
    <path class="cls-1" d="M171.31,397.44c9.37.07,18.91,1.47,26.81,5.4l-4.83,8.19c-5.81-2.01-11.56-3.89-18.05-4.31-5-.32-11.33,0-15.26,2.62-1.8,1.2-2.59,2.66-2.64,4.44-.17,7.15,21.32,8.45,28.29,10.16,4.31,1.06,8.59,2.57,11.72,5.08,3.58,2.87,5,6.68,4.77,10.53-.23,3.83-2.34,7.36-6.21,9.94-8.21,5.47-19.58,5.89-30.03,5.4-9.79-.7-17.75-2.93-25.86-7.03,2.06-2.65,4.06-5.33,6.09-8,8.18,4.51,17.84,6.85,28.06,6.44,4.14-.17,8.91-.95,11.71-3.43,1.38-1.22,1.89-2.76,1.65-4.33-.3-1.98-1.76-3.52-4.02-4.58-2.75-1.29-6.03-1.84-9.14-2.4-8.56-1.56-18.89-2.65-25.76-7-3.7-2.35-5.66-5.45-5.98-9.04-.34-3.91,1.01-7.89,4.59-10.85,6.24-5.16,15.06-6.86,24.07-7.24Z"/>
    <path class="cls-3" d="M452.88,413.65c7.79-.45,15.54.46,21.99,3.93.36.19.72.39,1.07.6.35.21.7.42,1.03.64.34.22.67.44.99.67.32.23.64.47.94.71s.6.49.89.74c.29.25.57.51.85.77.27.26.54.53.79.8.26.27.5.55.74.83.24.28.46.57.68.86.22.29.43.58.62.88.2.3.39.6.57.9.18.3.35.61.51.92.16.31.31.62.44.94.14.32.26.63.38.95.12.32.22.64.32.97.09.32.18.65.25.98.07.34.14.68.19,1.03.05.34.09.69.12,1.03s.05.69.05,1.04c0,.35,0,.69-.02,1.04-.02.35-.05.69-.09,1.04-.04.34-.09.69-.16,1.03-.06.34-.14.68-.22,1.02-.09.34-.18.68-.29,1.01-.11.34-.23.67-.36,1-.13.33-.27.66-.43.99-.15.33-.32.65-.49.97-.17.32-.36.64-.56.95-.2.31-.4.62-.62.93-.22.31-.44.61-.68.91-.24.3-.48.59-.74.88-.26.29-.52.57-.8.85-4.86,4.85-11.9,7.37-19.82,8.28-8.14.68-16.78-.51-23.4-4.22-5.94-3.32-9.72-8.02-10.66-13.5-.93-5.39.75-10.93,5.29-15.24,5.33-5.08,12.18-7.3,20.61-8.12Z"/>
    <path class="cls-2" d="M454.99,422.03c3.71-.28,7.62.37,10.7,1.95,3.47,1.78,5.59,4.58,6.33,7.62.87,3.53.05,7.37-2.77,10.33-2.72,2.85-6.4,3.99-10.91,4.55-3.79.24-7.72-.35-10.89-1.95-3.41-1.73-5.57-4.45-6.31-7.44-.89-3.58-.12-7.5,2.79-10.5,2.78-2.86,6.48-4.03,11.04-4.57Z"/>
    <path class="cls-3" d="M369.89,396.48h14.32s-.09,57.82-.09,57.82c-4.44.1-8.91.03-13.35.02l.09-5.78c-2.42,1.88-5.06,3.47-8.24,4.6-6.97,2.48-14.87,2.09-21.99.2-2.29-.9-4.38-1.7-6.39-2.95-6-3.74-9.25-8.61-9.86-14.37-.61-5.79,1.48-11.56,6.64-16,4.52-3.89,10.84-6.05,17.72-6.4,8.52-.44,15.03,1.86,21.27,5.93l-.12-23.07Z"/>
    <path class="cls-5" d="M351.93,422c3.76-.23,7.62.21,10.9,1.65.22.1.43.2.65.3.21.1.42.21.63.33.2.11.41.23.6.35.2.12.39.24.58.37.19.13.37.26.55.39.18.13.35.27.52.41.17.14.34.28.5.43.16.15.32.3.47.45.15.15.29.31.43.47.14.16.27.32.4.48.13.16.25.33.37.5.12.17.23.34.33.51.11.17.21.35.3.52.09.18.18.35.26.53.08.18.16.36.23.54.07.18.13.36.19.55,1.09,3.43.52,7.34-2.03,10.35-2.52,2.98-6.19,4.35-10.68,5.11-3.91.22-7.46.02-10.87-1.53-3.69-1.68-6.23-4.48-7.21-7.59-1.06-3.38-.37-7.23,2.19-10.16,2.59-2.98,6.16-4.27,10.71-4.96Z"/>
    <path class="cls-1" d="M153.18,506.71c-3.02.27-6.07.07-8.9-.8-.23-.07-.46-.15-.68-.23-.22-.08-.45-.16-.67-.25-.22-.09-.44-.18-.65-.28-.21-.1-.42-.2-.63-.3s-.41-.21-.61-.32c-.2-.11-.39-.23-.59-.34-.19-.12-.38-.24-.56-.37-.18-.13-.36-.25-.54-.39-.17-.13-.34-.27-.51-.41-.17-.14-.33-.28-.48-.42-.16-.14-.31-.29-.45-.44-.15-.15-.29-.3-.42-.46-.14-.16-.27-.31-.39-.47s-.24-.32-.36-.49c-.11-.16-.22-.33-.32-.5-.1-.17-.2-.34-.29-.51-.1-.18-.19-.35-.27-.53s-.16-.36-.23-.54-.14-.36-.2-.55c-.06-.18-.11-.37-.16-.55s-.09-.37-.12-.56c-.03-.19-.06-.38-.08-.56-.02-.19-.04-.38-.04-.57,0-.19-.01-.38,0-.57,0-.19.01-.38.03-.57.02-.19.04-.38.07-.56.03-.19.07-.37.11-.56.04-.19.09-.37.15-.56.06-.18.12-.37.18-.55.07-.18.14-.36.22-.54.08-.18.17-.36.26-.53.09-.18.19-.35.29-.52,1.66-2.75,4.75-5.03,8.59-6.07,3.85-1.05,8.45-.81,12.16.46,4.76,1.63,7.05,4.64,8.81,8.14l137.22-.03c3.74-2.07,7.06-4.91,10.37-7.35,6.08-4.53,12.19-9.03,18.33-13.51l13.88-10.19c1.17.92,2.38,1.82,3.56,2.72-3.37,2.2-6.37,4.75-9.58,7.08-11.48,8.32-22.6,16.99-34.48,25.01h-139.02c-.56,1.27-1.19,2.56-2.1,3.73-2.55,3.27-6.08,4.81-10.89,5.8Z"/>
    <path class="cls-5" d="M196.93,527.99c-1.4.09-2.77.09-4.13-.24-2.18-.54-4.02-1.63-4.93-3.22-.77-1.34-.76-2.81,0-4.16,1.1-1.97,3.14-2.85,5.64-3.64.38-.05.77-.08,1.15-.1.39-.01.77,0,1.16.02.39.03.77.08,1.14.14.38.07.75.15,1.11.26,1.97.56,3.46,1.55,4.3,3,.1.18.19.36.27.54.08.18.14.37.2.56.05.19.09.38.12.57.03.19.04.38.04.58,0,.19-.01.39-.04.58s-.07.38-.12.57-.12.38-.19.56c-.08.18-.17.36-.27.54-1.08,1.9-3.05,2.67-5.45,3.44Z"/>
    <path class="cls-5" d="M146.4,490.26c1.43-.05,2.89,0,4.25.37,2.05.57,3.8,1.72,4.63,3.24.09.17.17.34.24.51.07.17.12.35.17.53.04.18.07.36.09.54.02.18.02.36.01.54,0,.18-.03.36-.06.54-.03.18-.08.36-.14.53-.06.17-.13.35-.21.52-.08.17-.18.33-.28.5-1.19,1.8-3.35,2.71-5.78,3.34-1.63.06-3.15.03-4.66-.49-.26-.09-.5-.18-.75-.29-.24-.11-.47-.22-.7-.35-.23-.12-.44-.26-.65-.4-.21-.14-.4-.29-.59-.45-.19-.16-.36-.32-.52-.49-.16-.17-.31-.35-.45-.53s-.26-.37-.37-.56c-.11-.19-.21-.39-.29-.58-.07-.17-.13-.34-.17-.51-.05-.17-.08-.35-.1-.52-.02-.17-.03-.35-.03-.53,0-.18.01-.35.04-.53.02-.17.06-.35.11-.52.05-.17.11-.34.18-.51.07-.17.15-.33.24-.49.09-.16.19-.32.31-.47,1.24-1.65,3.17-2.38,5.49-2.94Z"/>
  </g>
</svg>